<svg width="74" height="11" viewBox="0 0 74 11" fill="#ffffff" xmlns="http://www.w3.org/2000/svg">
<path d="M60.2752 0.342001L60.4189 8.41725H60.3482L57.9711 0.342001H54.0748V10.5143H56.6526L56.5088 2.15775H56.5796L59.1232 10.5143H62.853V0.342001H60.2752ZM11.1576 0.342001L9.20941 10.62H12.0245L13.4617 1.269H13.521L14.9239 10.62H17.7162L15.7908 0.342001H11.1576ZM26.9119 0.342001L25.6276 8.181H25.5568L24.2611 0.342001H20.0066L19.8035 10.62H22.4178L22.4886 1.37475H22.5114L24.2588 10.62H26.9073L28.6548 1.37475H28.7255L28.7962 10.62H31.4105L31.1619 0.342001H26.9119ZM4.81116 7.70175C4.91837 7.93575 4.88187 8.28675 4.84766 8.451C4.77694 8.802 4.526 9.14175 3.83706 9.14175C3.17094 9.14175 2.79225 8.766 2.79225 8.217V7.22025H0V8.0055C0 10.314 1.84097 10.9935 3.80284 10.9935C5.68031 10.9935 7.24753 10.35 7.49847 8.6625C7.64219 7.7715 7.53497 7.1865 7.49847 6.975C7.01028 4.806 3.03178 4.1985 2.75803 2.99025C2.72153 2.77875 2.72153 2.58075 2.75803 2.439C2.82875 2.09925 3.066 1.74825 3.69563 1.74825C4.32525 1.74825 4.66972 2.124 4.66972 2.673V3.294H7.28403V2.5785C7.28403 0.33975 5.22862 0 3.76634 0C1.91169 0 0.380969 0.60975 0.107219 2.26125C0.0365 2.70675 0 3.1275 0.143719 3.645C0.558906 5.76675 4.29103 6.38775 4.81344 7.6995L4.81116 7.70175ZM38.7333 7.70175C38.8406 7.93575 38.8041 8.253 38.7698 8.451C38.6991 8.802 38.4482 9.14175 37.7593 9.14175C37.0931 9.14175 36.7144 8.766 36.7144 8.217V7.22025H33.9222V8.0055C33.9222 10.278 35.7289 10.971 37.6885 10.971C39.566 10.971 41.099 10.35 41.3477 8.6265C41.4914 7.7355 41.3842 7.18425 41.3477 6.939C40.9325 4.806 36.9882 4.1625 36.7144 2.99025C36.6779 2.77875 36.6779 2.58075 36.7144 2.439C36.7737 2.09925 37.0224 1.74825 37.652 1.74825C38.2452 1.74825 38.6261 2.124 38.6261 2.673V3.294H41.2039V2.5785C41.2039 0.33975 39.185 0 37.7227 0C35.8681 0 34.3716 0.57375 34.0978 2.26125C34.0271 2.70675 34.0271 3.1275 34.1207 3.645C34.5495 5.76675 38.2087 6.35175 38.7311 7.6995L38.7333 7.70175ZM47.5139 9.07425C48.2507 9.07425 48.4515 8.59275 48.5245 8.325C48.561 8.21925 48.561 8.04375 48.561 7.938V0.34425H51.2095V7.73775C51.2095 7.938 51.2095 8.32275 51.173 8.41725C51.0065 10.35 49.4621 10.971 47.5481 10.971C45.6341 10.971 44.1034 10.35 43.9232 8.41725C43.9232 8.32275 43.8867 7.93575 43.8867 7.73775V0.34425H46.5352V7.938C46.5352 8.07975 46.5352 8.21925 46.5717 8.325C46.5717 8.595 46.7862 9.07425 47.5093 9.07425H47.5139ZM69.2702 8.9685C70.0435 8.9685 70.2808 8.487 70.3515 8.21925C70.388 8.1135 70.388 7.938 70.388 7.8435V6.35625H69.3067V4.84425H73.0023V7.59825C73.0023 7.80975 73.0023 7.938 72.9658 8.289C72.7878 10.1768 71.1476 10.8315 69.3067 10.8315C67.452 10.8315 65.8255 10.1745 65.6475 8.289C65.611 7.938 65.611 7.8075 65.611 7.59825V3.2625C65.611 3.09825 65.6475 2.74725 65.6475 2.583C65.8848 0.650252 67.4543 0.0292511 69.3067 0.0292511C71.1476 0.0292511 72.7513 0.650252 72.9658 2.583C73.0023 2.88675 73.0023 3.2625 73.0023 3.2625V3.6135H70.388V3.0285C70.388 3.0285 70.388 2.78325 70.3515 2.6415C70.315 2.4075 70.1028 1.89225 69.3067 1.89225C68.5333 1.89225 68.3326 2.37375 68.2618 2.6415C68.2253 2.78325 68.2253 2.95875 68.2253 3.13425V7.84575C68.2253 7.974 68.2253 8.11575 68.2618 8.2215C68.2618 8.4915 68.5356 8.97075 69.2724 8.97075L69.2702 8.9685Z" fill="#3F3F46"/>
</svg>
